{
	"asset":{
		"generator":"Khronos glTF Blender I/O v4.1.63",
		"version":"2.0"
	},
	"scene":0,
	"scenes":[
		{
			"name":"Scene",
			"nodes":[
				0,
				1,
				2,
				5
			]
		}
	],
	"nodes":[
		{
			"camera":0,
			"name":"Camera",
			"rotation":[
				-0.12399912625551224,
				-0.29980185627937317,
				-0.03933541849255562,
				0.9450904726982117
			],
			"translation":[
				-0.45977798104286194,
				0.3395817279815674,
				0.6268787980079651
			]
		},
		{
			"mesh":0,
			"name":"LID v2"
		},
		{
			"mesh":1,
			"name":"Bottlev2"
		},
		{
			"mesh":2,
			"name":"First strap",
			"translation":[
				0,
				-0.0016383230686187744,
				0
			]
		},
		{
			"mesh":3,
			"name":"First strap button",
			"translation":[
				0,
				0.0006497949361801147,
				0
			]
		},
		{
			"children":[
				3,
				4
			],
			"mesh":4,
			"name":"First strap housing",
			"rotation":[
				0,
				0.7933533787727356,
				0,
				0.6087614297866821
			],
			"translation":[
				0,
				0.23369067907333374,
				0
			]
		}
	],
	"cameras":[
		{
			"name":"Camera.001",
			"perspective":{
				"aspectRatio":1.7777777777777777,
				"yfov":0.39959652046304894,
				"zfar":1000,
				"znear":0.10000000149011612
			},
			"type":"perspective"
		}
	],
	"materials":[
		{
			"doubleSided":true,
			"name":"Stainless Steel Forest",
			"pbrMetallicRoughness":{}
		},
		{
			"doubleSided":true,
			"name":"mirror seal",
			"pbrMetallicRoughness":{
				"baseColorFactor":[
					0.800000011920929,
					0.800000011920929,
					0.800000011920929,
					1
				],
				"roughnessFactor":0.09545454382896423
			}
		},
		{
			"doubleSided":true,
			"name":"Material.002",
			"pbrMetallicRoughness":{
				"baseColorFactor":[
					0.16067767143249512,
					0.16067767143249512,
					0.16067767143249512,
					1
				],
				"roughnessFactor":0.3393782377243042
			}
		},
		{
			"doubleSided":true,
			"name":"Procedural Charger Plastic",
			"pbrMetallicRoughness":{
				"metallicFactor":0
			}
		},
		{
			"doubleSided":true,
			"name":"button1",
			"pbrMetallicRoughness":{
				"baseColorFactor":[
					0.05738234519958496,
					0.05738234519958496,
					0.05738234519958496,
					1
				],
				"roughnessFactor":0.2348327934741974
			}
		},
		{
			"doubleSided":true,
			"name":"housing1",
			"pbrMetallicRoughness":{
				"baseColorFactor":[
					0.10220305621623993,
					0.10220305621623993,
					0.10220305621623993,
					1
				],
				"roughnessFactor":0.6030145883560181
			}
		}
	],
	"meshes":[
		{
			"name":"Mesh",
			"primitives":[
				{
					"attributes":{
						"POSITION":0,
						"NORMAL":1,
						"TEXCOORD_0":2
					},
					"indices":3,
					"material":0
				}
			]
		},
		{
			"name":"Mesh",
			"primitives":[
				{
					"attributes":{
						"POSITION":4,
						"NORMAL":5,
						"TEXCOORD_0":6
					},
					"indices":7,
					"material":0
				},
				{
					"attributes":{
						"POSITION":8,
						"NORMAL":9,
						"TEXCOORD_0":10
					},
					"indices":11,
					"material":1
				},
				{
					"attributes":{
						"POSITION":12,
						"NORMAL":13,
						"TEXCOORD_0":14
					},
					"indices":15,
					"material":2
				}
			]
		},
		{
			"name":"Mesh",
			"primitives":[
				{
					"attributes":{
						"POSITION":16,
						"NORMAL":17,
						"TEXCOORD_0":18,
						"TEXCOORD_1":19
					},
					"indices":20,
					"material":3
				}
			]
		},
		{
			"name":"Mesh",
			"primitives":[
				{
					"attributes":{
						"POSITION":21,
						"NORMAL":22,
						"TEXCOORD_0":23,
						"TEXCOORD_1":24
					},
					"indices":25,
					"material":4
				}
			]
		},
		{
			"name":"Cylinder.003",
			"primitives":[
				{
					"attributes":{
						"POSITION":26,
						"NORMAL":27,
						"TEXCOORD_0":28
					},
					"indices":29,
					"material":5
				}
			]
		}
	],
	"accessors":[
		{
			"bufferView":0,
			"componentType":5126,
			"count":13965,
			"max":[
				0.036737944930791855,
				0.22993166744709015,
				0.03669479861855507
			],
			"min":[
				-0.03673776239156723,
				0.18283480405807495,
				-0.03677607327699661
			],
			"type":"VEC3"
		},
		{
			"bufferView":1,
			"componentType":5126,
			"count":13965,
			"type":"VEC3"
		},
		{
			"bufferView":2,
			"componentType":5126,
			"count":13965,
			"type":"VEC2"
		},
		{
			"bufferView":3,
			"componentType":5123,
			"count":75264,
			"type":"SCALAR"
		},
		{
			"bufferView":4,
			"componentType":5126,
			"count":2736,
			"max":[
				0.036775656044483185,
				0.18289780616760254,
				0.03673733025789261
			],
			"min":[
				-0.03677569702267647,
				0.00010878359898924828,
				-0.036814022809267044
			],
			"type":"VEC3"
		},
		{
			"bufferView":5,
			"componentType":5126,
			"count":2736,
			"type":"VEC3"
		},
		{
			"bufferView":6,
			"componentType":5126,
			"count":2736,
			"type":"VEC2"
		},
		{
			"bufferView":7,
			"componentType":5123,
			"count":14208,
			"type":"SCALAR"
		},
		{
			"bufferView":8,
			"componentType":5126,
			"count":897,
			"max":[
				0.032495833933353424,
				0.21411830186843872,
				0.03245750814676285
			],
			"min":[
				-0.03249587491154671,
				0.21161754429340363,
				-0.03253420442342758
			],
			"type":"VEC3"
		},
		{
			"bufferView":9,
			"componentType":5126,
			"count":897,
			"type":"VEC3"
		},
		{
			"bufferView":10,
			"componentType":5126,
			"count":897,
			"type":"VEC2"
		},
		{
			"bufferView":11,
			"componentType":5123,
			"count":4608,
			"type":"SCALAR"
		},
		{
			"bufferView":12,
			"componentType":5126,
			"count":8382,
			"max":[
				0.036062534898519516,
				0.2258710265159607,
				0.03593437001109123
			],
			"min":[
				-0.036063507199287415,
				0.004441142547875643,
				-0.0361916609108448
			],
			"type":"VEC3"
		},
		{
			"bufferView":13,
			"componentType":5126,
			"count":8382,
			"type":"VEC3"
		},
		{
			"bufferView":14,
			"componentType":5126,
			"count":8382,
			"type":"VEC2"
		},
		{
			"bufferView":15,
			"componentType":5123,
			"count":45120,
			"type":"SCALAR"
		},
		{
			"bufferView":16,
			"componentType":5126,
			"count":6405,
			"max":[
				0.0131310373544693,
				0.003973109647631645,
				0.12175630033016205
			],
			"min":[
				-0.013250013813376427,
				-0.04601482301950455,
				-0.012794540263712406
			],
			"type":"VEC3"
		},
		{
			"bufferView":17,
			"componentType":5126,
			"count":6405,
			"type":"VEC3"
		},
		{
			"bufferView":18,
			"componentType":5126,
			"count":6405,
			"type":"VEC2"
		},
		{
			"bufferView":19,
			"componentType":5126,
			"count":6405,
			"type":"VEC2"
		},
		{
			"bufferView":20,
			"componentType":5123,
			"count":30864,
			"type":"SCALAR"
		},
		{
			"bufferView":21,
			"componentType":5126,
			"count":6928,
			"max":[
				0.01034554559737444,
				0.0019763968884944916,
				0.010345647111535072
			],
			"min":[
				-0.010345677845180035,
				-0.00034248302108608186,
				-0.01034556981176138
			],
			"type":"VEC3"
		},
		{
			"bufferView":22,
			"componentType":5126,
			"count":6928,
			"type":"VEC3"
		},
		{
			"bufferView":23,
			"componentType":5126,
			"count":6928,
			"type":"VEC2"
		},
		{
			"bufferView":24,
			"componentType":5126,
			"count":6928,
			"type":"VEC2"
		},
		{
			"bufferView":25,
			"componentType":5123,
			"count":32256,
			"type":"SCALAR"
		},
		{
			"bufferView":26,
			"componentType":5126,
			"count":18170,
			"max":[
				0.01286495104432106,
				0.0015350361354649067,
				0.012864944525063038
			],
			"min":[
				-0.012864941731095314,
				-0.017052289098501205,
				-0.01286495104432106
			],
			"type":"VEC3"
		},
		{
			"bufferView":27,
			"componentType":5126,
			"count":18170,
			"type":"VEC3"
		},
		{
			"bufferView":28,
			"componentType":5126,
			"count":18170,
			"type":"VEC2"
		},
		{
			"bufferView":29,
			"componentType":5123,
			"count":92928,
			"type":"SCALAR"
		}
	],
	"bufferViews":[
		{
			"buffer":0,
			"byteLength":167580,
			"byteOffset":0,
			"target":34962
		},
		{
			"buffer":0,
			"byteLength":167580,
			"byteOffset":167580,
			"target":34962
		},
		{
			"buffer":0,
			"byteLength":111720,
			"byteOffset":335160,
			"target":34962
		},
		{
			"buffer":0,
			"byteLength":150528,
			"byteOffset":446880,
			"target":34963
		},
		{
			"buffer":0,
			"byteLength":32832,
			"byteOffset":597408,
			"target":34962
		},
		{
			"buffer":0,
			"byteLength":32832,
			"byteOffset":630240,
			"target":34962
		},
		{
			"buffer":0,
			"byteLength":21888,
			"byteOffset":663072,
			"target":34962
		},
		{
			"buffer":0,
			"byteLength":28416,
			"byteOffset":684960,
			"target":34963
		},
		{
			"buffer":0,
			"byteLength":10764,
			"byteOffset":713376,
			"target":34962
		},
		{
			"buffer":0,
			"byteLength":10764,
			"byteOffset":724140,
			"target":34962
		},
		{
			"buffer":0,
			"byteLength":7176,
			"byteOffset":734904,
			"target":34962
		},
		{
			"buffer":0,
			"byteLength":9216,
			"byteOffset":742080,
			"target":34963
		},
		{
			"buffer":0,
			"byteLength":100584,
			"byteOffset":751296,
			"target":34962
		},
		{
			"buffer":0,
			"byteLength":100584,
			"byteOffset":851880,
			"target":34962
		},
		{
			"buffer":0,
			"byteLength":67056,
			"byteOffset":952464,
			"target":34962
		},
		{
			"buffer":0,
			"byteLength":90240,
			"byteOffset":1019520,
			"target":34963
		},
		{
			"buffer":0,
			"byteLength":76860,
			"byteOffset":1109760,
			"target":34962
		},
		{
			"buffer":0,
			"byteLength":76860,
			"byteOffset":1186620,
			"target":34962
		},
		{
			"buffer":0,
			"byteLength":51240,
			"byteOffset":1263480,
			"target":34962
		},
		{
			"buffer":0,
			"byteLength":51240,
			"byteOffset":1314720,
			"target":34962
		},
		{
			"buffer":0,
			"byteLength":61728,
			"byteOffset":1365960,
			"target":34963
		},
		{
			"buffer":0,
			"byteLength":83136,
			"byteOffset":1427688,
			"target":34962
		},
		{
			"buffer":0,
			"byteLength":83136,
			"byteOffset":1510824,
			"target":34962
		},
		{
			"buffer":0,
			"byteLength":55424,
			"byteOffset":1593960,
			"target":34962
		},
		{
			"buffer":0,
			"byteLength":55424,
			"byteOffset":1649384,
			"target":34962
		},
		{
			"buffer":0,
			"byteLength":64512,
			"byteOffset":1704808,
			"target":34963
		},
		{
			"buffer":0,
			"byteLength":218040,
			"byteOffset":1769320,
			"target":34962
		},
		{
			"buffer":0,
			"byteLength":218040,
			"byteOffset":1987360,
			"target":34962
		},
		{
			"buffer":0,
			"byteLength":145360,
			"byteOffset":2205400,
			"target":34962
		},
		{
			"buffer":0,
			"byteLength":185856,
			"byteOffset":2350760,
			"target":34963
		}
	],
	"buffers":[
		{
			"byteLength":2536616,
			"uri":"Modifiers%20applied.bin"
		}
	]
}
