{
  "asset": {
    "version": "2.0",
    "generator": "THREE.GLTFExporter r166"
  },
  "scenes": [
    {
      "name": "Scene",
      "nodes": [
        13
      ]
    }
  ],
  "scene": 0,
  "nodes": [
    {
      "matrix": [
        0.8171431436469152,
        -7.220569768762175e-7,
        0.5764348711816918,
        0,
        0.1487013949706686,
        0.9661538830797701,
        -0.21079512273078627,
        0,
        -0.5569246410858046,
        0.2579664486571629,
        0.7894861273186232,
        0,
        -0.45977798104286194,
        0.3395817279815674,
        0.6268787980079651,
        1
      ],
      "name": "Camera",
      "extras": {
        "name": "Camera"
      },
      "camera": 0
    },
    {
      "matrix": [
        0.8253379219963142,
        0.543518233993245,
        0.15298778996432638,
        0,
        -0.15298778996432638,
        0.4760715339647805,
        -0.8659969346384071,
        0,
        -0.543518233993245,
        0.6913348566347213,
        0.4760715339647805,
        0,
        -0.4823570251464844,
        0.7822684645652771,
        0.44654399156570435,
        1
      ],
      "name": "Area",
      "extras": {
        "name": "Area"
      },
      "extensions": {
        "KHR_lights_punctual": {
          "light": 0
        }
      }
    },
    {
      "matrix": [
        0.40214069539160135,
        -0.780174635098092,
        -0.47917688757121013,
        0,
        -0.15951513893057268,
        0.455654849089532,
        -0.8757474868048476,
        0,
        0.90157521665407,
        0.42860970467618387,
        0.05878767748182945,
        0,
        1.1699713468551636,
        0.7822684645652771,
        0.08915835618972778,
        1
      ],
      "name": "Area001",
      "extras": {
        "name": "Area.001"
      },
      "extensions": {
        "KHR_lights_punctual": {
          "light": 1
        }
      }
    },
    {
      "matrix": [
        0.32789998257690023,
        -0.6466546652197369,
        -0.6887085244824398,
        0,
        -0.9296117384935965,
        -0.35068445477820553,
        -0.11332520594710971,
        0,
        -0.16823704526691685,
        0.6773908255930188,
        -0.7161272138439827,
        0,
        -0.3193328380584717,
        1.3984198570251465,
        -1.2260308265686035,
        1
      ],
      "name": "Area002",
      "extras": {
        "name": "Area.002"
      },
      "extensions": {
        "KHR_lights_punctual": {
          "light": 2
        }
      }
    },
    {
      "name": "Plane",
      "extras": {
        "name": "Plane"
      },
      "mesh": 0
    },
    {
      "name": "LID_v2",
      "extras": {
        "name": "LID v2"
      },
      "mesh": 1
    },
    {
      "name": "Mesh_1",
      "mesh": 2
    },
    {
      "name": "Mesh_2",
      "mesh": 3
    },
    {
      "name": "Mesh_3",
      "mesh": 4
    },
    {
      "name": "Bottlev2",
      "extras": {
        "name": "Bottlev2"
      },
      "children": [
        6,
        7,
        8
      ]
    },
    {
      "matrix": [
        1,
        0,
        0,
        0,
        0,
        1,
        0,
        0,
        0,
        0,
        1,
        0,
        0,
        -0.0016383230686187744,
        0,
        1
      ],
      "name": "First_strap",
      "extras": {
        "name": "First strap"
      },
      "mesh": 6
    },
    {
      "matrix": [
        1,
        0,
        0,
        0,
        0,
        1,
        0,
        0,
        0,
        0,
        1,
        0,
        0,
        0.0006497949361801147,
        0,
        1
      ],
      "name": "First_strap_button",
      "extras": {
        "name": "First strap button"
      },
      "mesh": 7
    },
    {
      "matrix": [
        -0.25881916722023135,
        0,
        -0.9659258743755714,
        0,
        0,
        1,
        0,
        0,
        0.9659258743755714,
        0,
        -0.25881916722023135,
        0,
        0,
        0.23369067907333374,
        0,
        1
      ],
      "name": "First_strap_housing",
      "extras": {
        "name": "First strap housing"
      },
      "mesh": 5,
      "children": [
        10,
        11
      ]
    },
    {
      "name": "Bottle scene.glb",
      "children": [
        0,
        1,
        2,
        3,
        4,
        5,
        9,
        12
      ]
    }
  ],
  "cameras": [
    {
      "type": "perspective",
      "perspective": {
        "aspectRatio": 1.772253408179631,
        "yfov": 0.39959652046304894,
        "zfar": 1000,
        "znear": 0.10000000149011612
      },
      "name": "PerspectiveCamera"
    }
  ],
  "extensions": {
    "KHR_lights_punctual": {
      "lights": [
        {
          "name": "Area",
          "color": [
            1,
            1,
            1
          ],
          "intensity": 1,
          "type": "point"
        },
        {
          "name": "Area001",
          "color": [
            1,
            1,
            1
          ],
          "intensity": 1,
          "type": "point"
        },
        {
          "name": "Area002",
          "color": [
            1,
            1,
            1
          ],
          "intensity": 1,
          "type": "point"
        }
      ]
    }
  },
  "bufferViews": [
    {
      "buffer": 0,
      "byteOffset": 0,
      "byteLength": 720,
      "target": 34962,
      "byteStride": 12
    },
    {
      "buffer": 0,
      "byteOffset": 720,
      "byteLength": 720,
      "target": 34962,
      "byteStride": 12
    },
    {
      "buffer": 0,
      "byteOffset": 1440,
      "byteLength": 480,
      "target": 34962,
      "byteStride": 8
    },
    {
      "buffer": 0,
      "byteOffset": 1920,
      "byteLength": 576,
      "target": 34963
    },
    {
      "buffer": 0,
      "byteOffset": 2496,
      "byteLength": 167520,
      "target": 34962,
      "byteStride": 12
    },
    {
      "buffer": 0,
      "byteOffset": 170016,
      "byteLength": 167520,
      "target": 34962,
      "byteStride": 12
    },
    {
      "buffer": 0,
      "byteOffset": 337536,
      "byteLength": 111680,
      "target": 34962,
      "byteStride": 8
    },
    {
      "buffer": 0,
      "byteOffset": 449216,
      "byteLength": 150528,
      "target": 34963
    },
    {
      "buffer": 0,
      "byteOffset": 599744,
      "byteLength": 32820,
      "target": 34962,
      "byteStride": 12
    },
    {
      "buffer": 0,
      "byteOffset": 632564,
      "byteLength": 32820,
      "target": 34962,
      "byteStride": 12
    },
    {
      "buffer": 0,
      "byteOffset": 665384,
      "byteLength": 21880,
      "target": 34962,
      "byteStride": 8
    },
    {
      "buffer": 0,
      "byteOffset": 687264,
      "byteLength": 28416,
      "target": 34963
    },
    {
      "buffer": 0,
      "byteOffset": 715680,
      "byteLength": 10764,
      "target": 34962,
      "byteStride": 12
    },
    {
      "buffer": 0,
      "byteOffset": 726444,
      "byteLength": 10764,
      "target": 34962,
      "byteStride": 12
    },
    {
      "buffer": 0,
      "byteOffset": 737208,
      "byteLength": 7176,
      "target": 34962,
      "byteStride": 8
    },
    {
      "buffer": 0,
      "byteOffset": 744384,
      "byteLength": 9216,
      "target": 34963
    },
    {
      "buffer": 0,
      "byteOffset": 753600,
      "byteLength": 100692,
      "target": 34962,
      "byteStride": 12
    },
    {
      "buffer": 0,
      "byteOffset": 854292,
      "byteLength": 100692,
      "target": 34962,
      "byteStride": 12
    },
    {
      "buffer": 0,
      "byteOffset": 954984,
      "byteLength": 67128,
      "target": 34962,
      "byteStride": 8
    },
    {
      "buffer": 0,
      "byteOffset": 1022112,
      "byteLength": 90240,
      "target": 34963
    },
    {
      "buffer": 0,
      "byteOffset": 1112352,
      "byteLength": 217824,
      "target": 34962,
      "byteStride": 12
    },
    {
      "buffer": 0,
      "byteOffset": 1330176,
      "byteLength": 217824,
      "target": 34962,
      "byteStride": 12
    },
    {
      "buffer": 0,
      "byteOffset": 1548000,
      "byteLength": 145216,
      "target": 34962,
      "byteStride": 8
    },
    {
      "buffer": 0,
      "byteOffset": 1693216,
      "byteLength": 185856,
      "target": 34963
    },
    {
      "buffer": 0,
      "byteOffset": 1879072,
      "byteLength": 76860,
      "target": 34962,
      "byteStride": 12
    },
    {
      "buffer": 0,
      "byteOffset": 1955932,
      "byteLength": 76860,
      "target": 34962,
      "byteStride": 12
    },
    {
      "buffer": 0,
      "byteOffset": 2032792,
      "byteLength": 51240,
      "target": 34962,
      "byteStride": 8
    },
    {
      "buffer": 0,
      "byteOffset": 2084032,
      "byteLength": 51240,
      "target": 34962,
      "byteStride": 8
    },
    {
      "buffer": 0,
      "byteOffset": 2135272,
      "byteLength": 61728,
      "target": 34963
    },
    {
      "buffer": 0,
      "byteOffset": 2197000,
      "byteLength": 83160,
      "target": 34962,
      "byteStride": 12
    },
    {
      "buffer": 0,
      "byteOffset": 2280160,
      "byteLength": 83160,
      "target": 34962,
      "byteStride": 12
    },
    {
      "buffer": 0,
      "byteOffset": 2363320,
      "byteLength": 55440,
      "target": 34962,
      "byteStride": 8
    },
    {
      "buffer": 0,
      "byteOffset": 2418760,
      "byteLength": 55440,
      "target": 34962,
      "byteStride": 8
    },
    {
      "buffer": 0,
      "byteOffset": 2474200,
      "byteLength": 64512,
      "target": 34963
    }
  ],
  "buffers": [
    {
      "byteLength": 2538712,
      "uri": "data:application/octet-stream;base64,"
    }
  ],
  "accessors": [
    {
      "bufferView": 0,
      "componentType": 5126,
      "count": 60,
      "max": [
        1,
        0.7178531885147095,
        1
      ],
      "min": [
        -1,
        0,
        -1
      ],
      "type": "VEC3"
    },
    {
      "bufferView": 1,
      "componentType": 5126,
      "count": 60,
      "max": [
        1,
        0.9951865673065186,
        0.9951865673065186
      ],
      "min": [
        -1,
        0,
        0
      ],
      "type": "VEC3"
    },
    {
      "bufferView": 2,
      "componentType": 5126,
      "count": 60,
      "max": [
        1,
        1
      ],
      "min": [
        0,
        -1.1920928955078125e-7
      ],
      "type": "VEC2"
    },
    {
      "bufferView": 3,
      "componentType": 5123,
      "count": 288,
      "max": [
        59
      ],
      "min": [
        0
      ],
      "type": "SCALAR"
    },
    {
      "bufferView": 4,
      "componentType": 5126,
      "count": 13960,
      "max": [
        0.036737944930791855,
        0.22993166744709015,
        0.03669479861855507
      ],
      "min": [
        -0.03673776239156723,
        0.18283480405807495,
        -0.03677607327699661
      ],
      "type": "VEC3"
    },
    {
      "bufferView": 5,
      "componentType": 5126,
      "count": 13960,
      "max": [
        1,
        1,
        1
      ],
      "min": [
        -1,
        -1,
        -1
      ],
      "type": "VEC3"
    },
    {
      "bufferView": 6,
      "componentType": 5126,
      "count": 13960,
      "max": [
        2.0001583099365234,
        0.7991453409194946
      ],
      "min": [
        -0.0001601253025000915,
        0.7897833585739136
      ],
      "type": "VEC2"
    },
    {
      "bufferView": 7,
      "componentType": 5123,
      "count": 75264,
      "max": [
        13959
      ],
      "min": [
        0
      ],
      "type": "SCALAR"
    },
    {
      "bufferView": 8,
      "componentType": 5126,
      "count": 2735,
      "max": [
        0.036775656044483185,
        0.18289780616760254,
        0.03673733025789261
      ],
      "min": [
        -0.03677569702267647,
        0.00010878359898924828,
        -0.036814022809267044
      ],
      "type": "VEC3"
    },
    {
      "bufferView": 9,
      "componentType": 5126,
      "count": 2735,
      "max": [
        1,
        0.9998863935470581,
        1
      ],
      "min": [
        -1,
        -1,
        -1
      ],
      "type": "VEC3"
    },
    {
      "bufferView": 10,
      "componentType": 5126,
      "count": 2735,
      "max": [
        1.0000001192092896,
        0.7975000739097595
      ],
      "min": [
        0,
        0.79749995470047
      ],
      "type": "VEC2"
    },
    {
      "bufferView": 11,
      "componentType": 5123,
      "count": 14208,
      "max": [
        2734
      ],
      "min": [
        0
      ],
      "type": "SCALAR"
    },
    {
      "bufferView": 12,
      "componentType": 5126,
      "count": 897,
      "max": [
        0.032495833933353424,
        0.21411830186843872,
        0.03245750814676285
      ],
      "min": [
        -0.03249587491154671,
        0.21161754429340363,
        -0.03253420442342758
      ],
      "type": "VEC3"
    },
    {
      "bufferView": 13,
      "componentType": 5126,
      "count": 897,
      "max": [
        0.9459898471832275,
        0.6316110491752625,
        0.9459591507911682
      ],
      "min": [
        -0.9459591507911682,
        0.32418370246887207,
        -0.9459591507911682
      ],
      "type": "VEC3"
    },
    {
      "bufferView": 14,
      "componentType": 5126,
      "count": 897,
      "max": [
        2.000136137008667,
        0.7900000810623169
      ],
      "min": [
        0.9998644590377808,
        0.7899999618530273
      ],
      "type": "VEC2"
    },
    {
      "bufferView": 15,
      "componentType": 5123,
      "count": 4608,
      "max": [
        896
      ],
      "min": [
        0
      ],
      "type": "SCALAR"
    },
    {
      "bufferView": 16,
      "componentType": 5126,
      "count": 8391,
      "max": [
        0.036062534898519516,
        0.2258710265159607,
        0.03593437001109123
      ],
      "min": [
        -0.036063507199287415,
        0.004441142547875643,
        -0.0361916609108448
      ],
      "type": "VEC3"
    },
    {
      "bufferView": 17,
      "componentType": 5126,
      "count": 8391,
      "max": [
        1,
        1,
        1
      ],
      "min": [
        -1,
        -0.7345914840698242,
        -1
      ],
      "type": "VEC3"
    },
    {
      "bufferView": 18,
      "componentType": 5126,
      "count": 8391,
      "max": [
        2.000171422958374,
        0.800000011920929
      ],
      "min": [
        -0.00007953823660500348,
        0.7899999022483826
      ],
      "type": "VEC2"
    },
    {
      "bufferView": 19,
      "componentType": 5123,
      "count": 45120,
      "max": [
        8390
      ],
      "min": [
        0
      ],
      "type": "SCALAR"
    },
    {
      "bufferView": 20,
      "componentType": 5126,
      "count": 18152,
      "max": [
        0.01286495104432106,
        0.0015350361354649067,
        0.012864944525063038
      ],
      "min": [
        -0.012864941731095314,
        -0.017052289098501205,
        -0.01286495104432106
      ],
      "type": "VEC3"
    },
    {
      "bufferView": 21,
      "componentType": 5126,
      "count": 18152,
      "max": [
        1,
        0.999996542930603,
        1
      ],
      "min": [
        -1,
        -1,
        -1
      ],
      "type": "VEC3"
    },
    {
      "bufferView": 22,
      "componentType": 5126,
      "count": 18152,
      "max": [
        1.0000001192092896,
        0.9899957180023193
      ],
      "min": [
        0,
        -1.1920928955078125e-7
      ],
      "type": "VEC2"
    },
    {
      "bufferView": 23,
      "componentType": 5123,
      "count": 92928,
      "max": [
        18151
      ],
      "min": [
        0
      ],
      "type": "SCALAR"
    },
    {
      "bufferView": 24,
      "componentType": 5126,
      "count": 6405,
      "max": [
        0.0131310373544693,
        0.003973109647631645,
        0.12175630033016205
      ],
      "min": [
        -0.013250013813376427,
        -0.04601482301950455,
        -0.012794540263712406
      ],
      "type": "VEC3"
    },
    {
      "bufferView": 25,
      "componentType": 5126,
      "count": 6405,
      "max": [
        1,
        1,
        0.9910296201705933
      ],
      "min": [
        -0.9999998807907104,
        -1,
        -0.9999990463256836
      ],
      "type": "VEC3"
    },
    {
      "bufferView": 26,
      "componentType": 5126,
      "count": 6405,
      "max": [
        0.7500001192092896,
        0.75
      ],
      "min": [
        0.5099999904632568,
        0.5099999308586121
      ],
      "type": "VEC2"
    },
    {
      "bufferView": 27,
      "componentType": 5126,
      "count": 6405,
      "max": [
        0.5092875361442566,
        0.6268353462219238
      ],
      "min": [
        0.37316468358039856,
        0.48686546087265015
      ],
      "type": "VEC2"
    },
    {
      "bufferView": 28,
      "componentType": 5123,
      "count": 30864,
      "max": [
        6404
      ],
      "min": [
        0
      ],
      "type": "SCALAR"
    },
    {
      "bufferView": 29,
      "componentType": 5126,
      "count": 6930,
      "max": [
        0.01034554559737444,
        0.0019763968884944916,
        0.010345647111535072
      ],
      "min": [
        -0.010345677845180035,
        -0.00034248302108608186,
        -0.01034556981176138
      ],
      "type": "VEC3"
    },
    {
      "bufferView": 30,
      "componentType": 5126,
      "count": 6930,
      "max": [
        1,
        1,
        1
      ],
      "min": [
        -1,
        -1,
        -1
      ],
      "type": "VEC3"
    },
    {
      "bufferView": 31,
      "componentType": 5126,
      "count": 6930,
      "max": [
        1.0000001192092896,
        0.9899963736534119
      ],
      "min": [
        0,
        -1.1920928955078125e-7
      ],
      "type": "VEC2"
    },
    {
      "bufferView": 32,
      "componentType": 5126,
      "count": 6930,
      "max": [
        0.5103966593742371,
        0.5103966593742371
      ],
      "min": [
        0.48960334062576294,
        0.48960334062576294
      ],
      "type": "VEC2"
    },
    {
      "bufferView": 33,
      "componentType": 5123,
      "count": 32256,
      "max": [
        6929
      ],
      "min": [
        0
      ],
      "type": "SCALAR"
    }
  ],
  "materials": [
    {
      "pbrMetallicRoughness": {
        "baseColorFactor": [
          0.15251141786575317,
          0.15251141786575317,
          0.15251141786575317,
          1
        ],
        "metallicFactor": 0,
        "roughnessFactor": 0.5
      },
      "doubleSided": true,
      "name": "Material"
    },
    {
      "pbrMetallicRoughness": {
        "metallicFactor": 1,
        "roughnessFactor": 1
      },
      "doubleSided": true,
      "name": "Stainless Steel Forest"
    },
    {
      "pbrMetallicRoughness": {
        "baseColorFactor": [
          0.800000011920929,
          0.800000011920929,
          0.800000011920929,
          1
        ],
        "metallicFactor": 1,
        "roughnessFactor": 0.09545454382896423
      },
      "doubleSided": true,
      "name": "mirror seal"
    },
    {
      "pbrMetallicRoughness": {
        "baseColorFactor": [
          0.16067767143249512,
          0.16067767143249512,
          0.16067767143249512,
          1
        ],
        "metallicFactor": 1,
        "roughnessFactor": 0.3393782377243042
      },
      "doubleSided": true,
      "name": "Material.002"
    },
    {
      "pbrMetallicRoughness": {
        "baseColorFactor": [
          0.10220305621623993,
          0.10220305621623993,
          0.10220305621623993,
          1
        ],
        "metallicFactor": 1,
        "roughnessFactor": 0.6030145883560181
      },
      "doubleSided": true,
      "name": "housing1"
    },
    {
      "pbrMetallicRoughness": {
        "metallicFactor": 0,
        "roughnessFactor": 1
      },
      "doubleSided": true,
      "name": "Procedural Charger Plastic"
    },
    {
      "pbrMetallicRoughness": {
        "baseColorFactor": [
          0.05738234519958496,
          0.05738234519958496,
          0.05738234519958496,
          1
        ],
        "metallicFactor": 1,
        "roughnessFactor": 0.2348327934741974
      },
      "doubleSided": true,
      "name": "button1"
    }
  ],
  "meshes": [
    {
      "primitives": [
        {
          "mode": 4,
          "attributes": {
            "POSITION": 0,
            "NORMAL": 1,
            "TEXCOORD_0": 2
          },
          "indices": 3,
          "material": 0
        }
      ]
    },
    {
      "primitives": [
        {
          "mode": 4,
          "attributes": {
            "POSITION": 4,
            "NORMAL": 5,
            "TEXCOORD_0": 6
          },
          "indices": 7,
          "material": 1
        }
      ]
    },
    {
      "primitives": [
        {
          "mode": 4,
          "attributes": {
            "POSITION": 8,
            "NORMAL": 9,
            "TEXCOORD_0": 10
          },
          "indices": 11,
          "material": 1
        }
      ]
    },
    {
      "primitives": [
        {
          "mode": 4,
          "attributes": {
            "POSITION": 12,
            "NORMAL": 13,
            "TEXCOORD_0": 14
          },
          "indices": 15,
          "material": 2
        }
      ]
    },
    {
      "primitives": [
        {
          "mode": 4,
          "attributes": {
            "POSITION": 16,
            "NORMAL": 17,
            "TEXCOORD_0": 18
          },
          "indices": 19,
          "material": 3
        }
      ]
    },
    {
      "primitives": [
        {
          "mode": 4,
          "attributes": {
            "POSITION": 20,
            "NORMAL": 21,
            "TEXCOORD_0": 22
          },
          "indices": 23,
          "material": 4
        }
      ]
    },
    {
      "primitives": [
        {
          "mode": 4,
          "attributes": {
            "POSITION": 24,
            "NORMAL": 25,
            "TEXCOORD_0": 26,
            "TEXCOORD_1": 27
          },
          "indices": 28,
          "material": 5
        }
      ]
    },
    {
      "primitives": [
        {
          "mode": 4,
          "attributes": {
            "POSITION": 29,
            "NORMAL": 30,
            "TEXCOORD_0": 31,
            "TEXCOORD_1": 32
          },
          "indices": 33,
          "material": 6
        }
      ]
    }
  ],
  "extensionsUsed": [
    "KHR_lights_punctual"
  ]
}